<svg xmlns="http://www.w3.org/2000/svg" viewBox="0 0 120 80" fill="none" aria-hidden="true">
  <!-- Sun (golden, behind right mountain) -->
  <circle cx="92" cy="22" r="10" fill="#c9a227"/>
  <g stroke="#c9a227" stroke-width="1.5" stroke-linecap="round">
    <line x1="92" y1="10" x2="92" y2="6"/>
    <line x1="92" y1="34" x2="92" y2="38"/>
    <line x1="80" y1="22" x2="76" y2="22"/>
    <line x1="104" y1="22" x2="108" y2="22"/>
    <line x1="84" y1="14" x2="81" y2="11"/>
    <line x1="100" y1="14" x2="103" y2="11"/>
    <line x1="84" y1="30" x2="81" y2="33"/>
    <line x1="100" y1="30" x2="103" y2="33"/>
  </g>
  <!-- Left mountain (darker green) -->
  <path d="M0 80 L0 35 L35 80 Z" fill="#2d6a43"/>
  <!-- Right mountain (lighter green) -->
  <path d="M28 80 L28 28 L55 80 Z" fill="#3d7a53"/>
  <!-- Path/river between mountains (earth tone) -->
  <path d="M22 80 Q30 55 38 45 Q45 38 52 50 Q58 65 65 80" stroke="#8b7355" stroke-width="3" fill="none" stroke-linecap="round"/>
  <!-- Hiker figure (simplified: head, body, leg, arm with braid/backpack) on right peak -->
  <circle cx="48" cy="32" r="3" fill="#f7f5f2"/>
  <path d="M48 35 L48 48 L45 56 L51 56 L48 48" fill="#f7f5f2"/>
  <path d="M48 38 L42 45" stroke="#f7f5f2" stroke-width="1.5" stroke-linecap="round"/>
  <path d="M48 42 L52 48" stroke="#f7f5f2" stroke-width="1.5" stroke-linecap="round"/>
  <!-- Small braid/backpack detail -->
  <path d="M50 40 L52 46" stroke="#8b7355" stroke-width="1" stroke-linecap="round"/>
</svg>
