<svg xmlns="http://www.w3.org/2000/svg" viewBox="0 0 64 64" fill="none" aria-hidden="true">
  <!-- Circular background (dark green, for icon-only mark) -->
  <circle cx="32" cy="32" r="31" fill="#2d6a43" stroke="#2d6a43"/>
  <!-- Sun -->
  <circle cx="48" cy="18" r="6" fill="#c9a227"/>
  <g stroke="#c9a227" stroke-width="1" stroke-linecap="round">
    <line x1="48" y1="11" x2="48" y2="8"/>
    <line x1="48" y1="25" x2="48" y2="28"/>
    <line x1="41" y1="18" x2="38" y2="18"/>
    <line x1="55" y1="18" x2="58" y2="18"/>
    <line x1="43" y1="14" x2="41" y2="12"/>
    <line x1="53" y1="14" x2="55" y2="12"/>
    <line x1="43" y1="22" x2="41" y2="24"/>
    <line x1="53" y1="22" x2="55" y2="24"/>
  </g>
  <!-- Left mountain -->
  <path d="M8 64 L8 28 L24 64 Z" fill="#3d7a53"/>
  <!-- Right mountain -->
  <path d="M20 64 L20 24 L40 64 Z" fill="#4a8a5f"/>
  <!-- Path -->
  <path d="M16 64 Q22 48 28 38 Q33 32 38 40 Q42 48 48 64" stroke="#8b7355" stroke-width="2" fill="none" stroke-linecap="round"/>
  <!-- Hiker -->
  <circle cx="34" cy="26" r="2.5" fill="#f7f5f2"/>
  <path d="M34 28.5 L34 38 L31 44 L37 44 L34 38" fill="#f7f5f2"/>
  <path d="M34 31 L29 36" stroke="#f7f5f2" stroke-width="1.2" stroke-linecap="round"/>
  <path d="M34 34 L38 39" stroke="#f7f5f2" stroke-width="1.2" stroke-linecap="round"/>
  <path d="M35 33 L37 38" stroke="#8b7355" stroke-width="0.8" stroke-linecap="round"/>
</svg>
